<svg width="626" height="665" viewBox="0 0 626 665" fill="none" xmlns="http://www.w3.org/2000/svg">
<path d="M364.996 153.696C363.528 150.261 360.878 147.244 357.045 145.329L279.725 106.671C277.203 105.412 274.588 104.847 272.042 104.871C266.309 104.924 260.938 107.961 257.9 112.767C256.289 115.32 255.333 118.375 255.333 121.744V199.064C255.333 202.579 256.373 205.749 258.113 208.372C261.262 213.108 266.717 216.041 272.485 215.936C274.888 215.894 277.346 215.322 279.721 214.137L357.042 175.478C359.835 174.08 362.004 172.099 363.542 169.794C366.723 165.026 367.211 158.882 364.993 153.699L364.996 153.696Z" fill="white"/>
<path d="M166.843 70.1609C167.422 71.4547 167.987 72.7555 168.545 74.0598C167.927 72.6126 167.31 71.1653 166.693 69.718C173.277 85.1988 178.264 101.342 181.536 117.841C182.453 122.466 183.234 127.118 183.886 131.791C183.663 130.18 183.44 128.569 183.216 126.954C185.557 143.879 186.146 161.03 184.946 178.073C184.601 182.945 184.109 187.803 183.482 192.647C183.691 191.033 183.904 189.421 184.113 187.807C181.926 204.431 178.055 220.822 172.527 236.652C170.955 241.154 169.249 245.608 167.418 250.012C168.025 248.562 168.628 247.107 169.235 245.656C168.234 248.056 167.195 250.441 166.118 252.809C164.796 254.905 164.084 257.162 163.983 259.585C163.45 262.006 163.568 264.426 164.339 266.843C164.911 269.211 166.006 271.268 167.621 273.019C168.911 274.996 170.62 276.552 172.747 277.685C176.981 279.9 182.104 280.998 186.781 279.464C188.228 278.847 189.675 278.229 191.123 277.612C193.85 275.983 196.019 273.797 197.627 271.056C203.869 257.305 209.205 243.146 213.09 228.547C216.958 214.018 219.392 199.137 220.832 184.18C222.129 170.708 222.311 157.131 221.376 143.628C220.34 128.68 218.133 113.716 214.67 99.1311C211.528 85.8928 207.276 72.916 201.969 60.3855C200.734 57.47 199.496 54.551 198.206 51.6599C197.055 49.543 195.485 47.8481 193.497 46.5717C191.733 44.971 189.665 43.8934 187.293 43.3389C184.87 42.5891 182.453 42.4914 180.032 43.0424C177.612 43.161 175.359 43.8899 173.274 45.2291C169.396 47.7505 165.992 51.496 164.953 56.1413C164.743 57.756 164.531 59.3672 164.321 60.9819C164.346 64.2671 165.186 67.3256 166.843 70.1574V70.1609Z" fill="#FFD700"/>
<path d="M237.997 31.0875C247.117 42.4391 257.241 52.9747 268.234 62.5199C280.192 72.902 293.043 82.3914 306.637 90.5311C320.232 98.6708 334.628 105.395 349.422 111.055C362.869 116.202 376.77 120.164 390.912 122.874C406.605 125.88 422.627 127.666 438.613 127.854C440.437 127.875 442.265 127.875 444.088 127.854C446.596 127.948 448.933 127.425 451.102 126.284C453.358 125.552 455.311 124.297 456.961 122.522C458.736 120.872 459.991 118.919 460.724 116.663C461.864 114.493 462.387 112.157 462.293 109.649C462.077 108.038 461.861 106.423 461.644 104.812C460.779 101.729 459.221 99.0509 456.964 96.7806C453.424 93.5303 449.009 91.3995 444.092 91.4483C432.392 91.5669 420.691 90.8415 409.095 89.2896C410.707 89.5058 412.321 89.722 413.932 89.9382C397.214 87.6784 380.742 83.6957 364.84 78.0635C360.341 76.4697 355.891 74.7399 351.493 72.8916C352.944 73.5019 354.391 74.1157 355.842 74.726C340.633 68.3056 326.073 60.3681 312.448 51.0392C308.58 48.3922 304.793 45.6301 301.082 42.7669C302.31 43.7155 303.537 44.6641 304.765 45.6127C292.935 36.4616 281.946 26.2399 271.986 15.0835C269.154 11.91 266.406 8.65966 263.742 5.34309C262.092 3.56797 260.139 2.31249 257.883 1.58013C255.714 0.439729 253.377 -0.0833885 250.87 0.0107727C248.362 -0.0833885 246.026 0.439729 243.856 1.58013C241.6 2.31249 239.647 3.56797 237.997 5.34309C234.813 8.8131 232.449 13.3677 232.665 18.2153C232.881 19.8265 233.098 21.4412 233.314 23.0524C234.179 26.1353 235.738 28.8136 237.994 31.084L237.997 31.0875Z" fill="#FF5733"/>
<path d="M265.322 313.498C274.427 302.401 284.499 292.113 295.411 282.784C298.466 280.172 301.591 277.636 304.772 275.178C303.544 276.126 302.316 277.075 301.089 278.023C314.163 267.934 328.242 259.163 343.071 251.892C347.238 249.848 351.462 247.927 355.734 246.12C354.283 246.731 352.836 247.344 351.385 247.955C366.977 241.384 383.236 236.411 399.847 233.178C404.534 232.265 409.245 231.494 413.978 230.856C412.367 231.072 410.752 231.288 409.141 231.504C420.562 229.977 432.078 229.255 443.6 229.346C446.108 229.44 448.444 228.917 450.613 227.776C452.87 227.044 454.823 225.788 456.472 224.013C458.247 222.364 459.503 220.411 460.235 218.154C461.376 215.985 461.899 213.649 461.805 211.141C461.588 209.53 461.372 207.915 461.156 206.304C460.291 203.221 458.732 200.543 456.476 198.272C452.898 194.987 448.549 192.982 443.604 192.94C427.708 192.815 411.854 194.335 396.188 196.979C382.172 199.347 368.362 202.939 354.97 207.699C340.256 212.927 325.864 219.337 312.256 227.006C298.602 234.699 285.803 243.773 273.681 253.692C262.629 262.734 252.376 272.747 243.082 283.586C241.903 284.96 240.739 286.352 239.591 287.75C237.816 289.4 236.561 291.353 235.828 293.609C234.688 295.778 234.165 298.115 234.259 300.622C234.165 303.13 234.688 305.466 235.828 307.635C236.561 309.892 237.816 311.845 239.591 313.494C243.061 316.678 247.616 319.043 252.463 318.827C254.075 318.61 255.689 318.394 257.3 318.178C260.383 317.313 263.062 315.754 265.332 313.498H265.322Z" fill="#2ECC71"/>
<path d="M149.545 536.832C149.545 579.731 119.937 610.546 79.4546 610.546C58.9101 610.546 43.2026 603.899 32.6286 592.418H32.0253V664.926H0V465.834H26.8883L27.795 486.075H28.3983C38.6689 471.574 56.1933 462.814 79.4546 462.814C119.937 462.814 149.545 493.933 149.545 536.832ZM117.22 536.832C117.22 509.943 99.3959 491.516 74.3211 491.516C49.2463 491.516 31.1185 509.943 31.1185 536.832C31.1185 563.72 48.9429 581.848 74.3211 581.848C99.6993 581.848 117.22 563.117 117.22 536.832Z" fill="white"/>
<path d="M320.839 536.832C320.839 580.034 289.42 610.546 245.311 610.546C201.202 610.546 170.083 580.031 170.083 536.832C170.083 493.633 201.202 462.814 245.311 462.814C289.42 462.814 320.839 493.326 320.839 536.832ZM202.412 536.832C202.412 563.117 219.933 581.848 245.311 581.848C270.689 581.848 288.513 563.117 288.513 536.832C288.513 510.547 270.992 491.516 245.311 491.516C219.629 491.516 202.412 509.943 202.412 536.832Z" fill="white"/>
<path d="M349.837 396.047H381.862V607.526H349.837V396.047Z" fill="white"/>
<path d="M455.876 421.725C455.876 433.809 447.719 441.966 435.332 441.966C422.944 441.966 415.091 433.809 415.091 421.725C415.091 409.641 423.248 401.18 435.332 401.18C447.416 401.18 455.876 409.641 455.876 421.725ZM451.346 465.834V607.526H419.321V465.834H451.346Z" fill="white"/>
<path d="M513.273 546.499C517.2 569.157 536.534 582.451 564.633 582.451C585.477 582.451 603.002 576.107 615.689 564.023H617.199V595.745C605.115 605.109 585.781 610.549 563.422 610.549C513.876 610.549 480.644 580.941 480.644 536.835C480.644 492.729 511.159 462.817 554.359 462.817C597.558 462.817 625.96 489.402 625.96 530.791V546.502H513.273V546.499ZM501.492 445.289L539.258 394.233H570.376L608.142 445.289H577.327L554.669 417.494L532.311 445.289H501.496H501.492ZM513.273 522.631H596.355C593.634 503.296 577.32 490.909 555.265 490.909C535.024 490.909 517.2 503.596 513.273 522.631Z" fill="white"/>
</svg>
