<svg width="512" height="512" viewBox="0 0 512 512" fill="none" xmlns="http://www.w3.org/2000/svg">
<path d="M339.529 246.807C337.171 241.291 332.915 236.447 326.761 233.372L202.598 171.294C198.549 169.272 194.349 168.365 190.261 168.404C181.054 168.488 172.43 173.366 167.552 181.083C164.965 185.183 163.43 190.088 163.43 195.498V319.661C163.43 325.306 165.099 330.396 167.894 334.608C172.951 342.213 181.709 346.922 190.972 346.754C194.831 346.687 198.779 345.769 202.593 343.865L326.755 281.786C331.241 279.541 334.724 276.36 337.194 272.658C342.301 265.002 343.085 255.135 339.523 246.813L339.529 246.807Z" fill="white"/>
<path d="M21.3304 112.666C22.26 114.743 23.1672 116.832 24.0633 118.927C23.072 116.602 22.0808 114.278 21.0896 111.954C31.6628 136.814 39.6711 162.737 44.9241 189.232C46.397 196.658 47.6514 204.128 48.6986 211.633C48.3402 209.045 47.9818 206.458 47.6234 203.865C51.3812 231.043 52.3276 258.585 50.4011 285.953C49.8467 293.777 49.0571 301.578 48.049 309.356C48.385 306.764 48.7267 304.176 49.0627 301.583C45.5513 328.28 39.3351 354.601 30.4587 380.02C27.933 387.25 25.1945 394.401 22.2544 401.474C23.2288 399.145 24.1977 396.809 25.1721 394.48C23.5649 398.333 21.896 402.163 20.1655 405.966C18.043 409.332 16.9006 412.955 16.7382 416.847C15.8814 420.734 16.0718 424.62 17.3094 428.501C18.2278 432.304 19.9863 435.608 22.5792 438.419C24.6513 441.594 27.3954 444.092 30.8115 445.912C37.6102 449.468 45.8369 451.232 53.3468 448.768C55.6709 447.777 57.995 446.786 60.3191 445.795C64.6985 443.179 68.1818 439.668 70.7635 435.266C80.7879 413.185 89.3563 390.448 95.5949 367.005C101.806 343.675 105.714 319.778 108.027 295.759C110.111 274.125 110.402 252.324 108.901 230.64C107.238 206.637 103.693 182.607 98.1318 159.187C93.086 137.928 86.2593 117.09 77.7358 96.9681C75.7533 92.2863 73.7652 87.5989 71.6931 82.9564C69.8451 79.557 67.325 76.8353 64.1328 74.7856C61.2991 72.2151 57.9782 70.4847 54.1701 69.5942C50.2779 68.3902 46.397 68.2334 42.5104 69.1182C38.6238 69.3086 35.0061 70.4791 31.6572 72.6296C25.4297 76.6785 19.9639 82.6932 18.295 90.1527C17.959 92.7456 17.6174 95.3329 17.2814 97.9258C17.3206 103.201 18.6703 108.113 21.3304 112.66V112.666Z" fill="#FFD700"/>
<path d="M135.592 49.9209C150.236 68.1496 166.494 85.0678 184.146 100.396C203.349 117.067 223.986 132.306 245.815 145.377C267.645 158.448 290.763 169.245 314.519 178.334C336.113 186.6 358.436 192.962 381.144 197.313C406.345 202.14 432.073 205.008 457.744 205.31C460.673 205.344 463.608 205.344 466.537 205.31C470.563 205.461 474.315 204.621 477.799 202.79C481.422 201.614 484.558 199.598 487.207 196.747C490.058 194.099 492.074 190.962 493.25 187.339C495.081 183.856 495.921 180.104 495.77 176.077C495.423 173.49 495.075 170.897 494.728 168.31C493.339 163.359 490.836 159.058 487.213 155.412C481.528 150.193 474.439 146.771 466.542 146.849C447.754 147.04 428.965 145.875 410.344 143.383C412.931 143.73 415.524 144.077 418.112 144.425C391.264 140.796 364.814 134.4 339.277 125.356C332.053 122.797 324.907 120.019 317.845 117.051C320.175 118.031 322.499 119.016 324.829 119.996C300.406 109.686 277.025 96.9403 255.145 81.9597C248.934 77.7092 242.853 73.2738 236.894 68.676C238.865 70.1993 240.837 71.7225 242.808 73.2458C223.812 58.5508 206.166 42.1366 190.171 24.2215C185.624 19.1253 181.211 13.9058 176.932 8.58004C174.284 5.72952 171.147 3.71344 167.524 2.5374C164.041 0.706126 160.289 -0.133907 156.262 0.017299C152.235 -0.133907 148.483 0.706126 145 2.5374C141.377 3.71344 138.241 5.72952 135.592 8.58004C130.479 14.1523 126.682 21.4661 127.029 29.2504C127.376 31.8378 127.723 34.4306 128.071 37.0179C129.459 41.9685 131.963 46.2695 135.586 49.9153L135.592 49.9209Z" fill="#FF5733"/>
<path d="M179.469 503.421C194.091 485.601 210.265 469.08 227.788 454.1C232.694 449.905 237.712 445.834 242.819 441.886C240.848 443.409 238.876 444.932 236.905 446.455C257.9 430.254 280.508 416.169 304.321 404.493C311.013 401.211 317.795 398.125 324.655 395.225C322.325 396.205 320.001 397.19 317.671 398.17C342.71 387.619 368.818 379.634 395.492 374.442C403.019 372.975 410.585 371.737 418.184 370.712C415.597 371.06 413.004 371.407 410.417 371.754C428.757 369.301 447.249 368.142 465.752 368.287C469.779 368.439 473.531 367.599 477.015 365.767C480.638 364.591 483.774 362.575 486.423 359.725C489.273 357.076 491.289 353.94 492.465 350.316C494.297 346.833 495.137 343.081 494.986 339.054C494.638 336.467 494.291 333.874 493.944 331.287C492.555 326.336 490.052 322.035 486.429 318.39C480.683 313.114 473.699 309.894 465.758 309.827C440.232 309.625 414.774 312.067 389.618 316.312C367.11 320.114 344.933 325.883 323.428 333.527C299.801 341.922 276.689 352.215 254.837 364.53C232.912 376.884 212.359 391.456 192.893 407.383C175.146 421.904 158.681 437.982 143.757 455.388C141.864 457.594 139.993 459.829 138.151 462.074C135.3 464.723 133.284 467.859 132.108 471.483C130.277 474.966 129.437 478.718 129.588 482.745C129.437 486.771 130.277 490.523 132.108 494.007C133.284 497.63 135.3 500.766 138.151 503.415C143.723 508.528 151.037 512.325 158.821 511.978C161.409 511.631 164.001 511.284 166.589 510.936C171.539 509.547 175.84 507.044 179.486 503.421H179.469Z" fill="#2ECC71"/>
</svg>
