<svg width="290" height="310" viewBox="0 0 290 310" fill="none" xmlns="http://www.w3.org/2000/svg">
<path d="M195.51 149.245C194.085 145.91 191.511 142.98 187.789 141.121L112.708 103.582C110.259 102.36 107.72 101.811 105.248 101.835C99.6802 101.886 94.465 104.835 91.5154 109.502C89.9509 111.981 89.0229 114.947 89.0229 118.218V193.3C89.0229 196.713 90.0321 199.792 91.722 202.338C94.78 206.937 100.076 209.785 105.678 209.684C108.011 209.643 110.398 209.087 112.705 207.936L187.786 170.397C190.498 169.039 192.605 167.116 194.098 164.877C197.187 160.248 197.661 154.281 195.507 149.249L195.51 149.245Z" fill="white"/>
<path d="M3.09485 68.1294C3.65701 69.3857 4.2056 70.6489 4.74744 71.9154C4.14803 70.51 3.54863 69.1047 2.94923 67.6993C9.34288 82.7318 14.1855 98.4078 17.362 114.429C18.2527 118.92 19.0112 123.437 19.6445 127.975C19.4278 126.41 19.211 124.846 18.9943 123.278C21.2666 139.712 21.8389 156.367 20.674 172.917C20.3387 177.648 19.8612 182.365 19.2517 187.069C19.4549 185.501 19.6614 183.936 19.8646 182.368C17.7413 198.512 13.9823 214.428 8.61479 229.799C7.08749 234.171 5.43151 238.496 3.65362 242.773C4.24286 241.364 4.82872 239.952 5.41796 238.543C4.44605 240.873 3.43688 243.189 2.39046 245.489C1.10699 247.524 0.416152 249.715 0.317944 252.069C-0.200185 254.419 -0.0850489 256.769 0.66336 259.116C1.21874 261.415 2.28209 263.413 3.85003 265.113C5.10302 267.033 6.76239 268.544 8.82814 269.644C12.9393 271.795 17.914 272.862 22.4553 271.372C23.8607 270.772 25.266 270.173 26.6714 269.573C29.3196 267.992 31.426 265.869 32.9872 263.207C39.049 249.854 44.2303 236.105 48.0028 221.929C51.7584 207.821 54.1221 193.371 55.5207 178.847C56.7805 165.765 56.9566 152.581 56.049 139.469C55.0432 124.954 52.8996 110.423 49.5369 96.2607C46.4857 83.4057 42.3576 70.8047 37.2033 58.6371C36.0045 55.806 34.8023 52.9715 33.5493 50.1642C32.4318 48.1086 30.9079 46.4627 28.9776 45.2233C27.2641 43.6689 25.2559 42.6225 22.9531 42.084C20.5995 41.356 18.2527 41.2611 15.9025 41.7962C13.5523 41.9113 11.3646 42.6191 9.33949 43.9195C5.57374 46.3679 2.26855 50.005 1.25938 54.5158C1.05619 56.0837 0.84962 57.6482 0.646432 59.2162C0.670137 62.4062 1.48628 65.3762 3.09485 68.126V68.1294Z" fill="#FFD700"/>
<path d="M72.189 30.1873C81.0447 41.2102 90.8756 51.4407 101.55 60.7095C113.162 70.791 125.641 80.0056 138.841 87.9096C152.042 95.8136 166.021 102.343 180.387 107.839C193.445 112.837 206.943 116.684 220.675 119.316C235.915 122.235 251.472 123.969 266.996 124.152C268.767 124.172 270.541 124.172 272.312 124.152C274.747 124.243 277.016 123.735 279.122 122.628C281.314 121.916 283.21 120.697 284.812 118.974C286.535 117.372 287.755 115.475 288.466 113.284C289.573 111.178 290.081 108.909 289.99 106.474C289.78 104.91 289.57 103.342 289.36 101.777C288.52 98.7835 287.006 96.1827 284.815 93.9781C281.378 90.822 277.091 88.7528 272.316 88.8002C260.954 88.9154 249.593 88.211 238.333 86.704C239.897 86.914 241.465 87.1239 243.03 87.3339C226.795 85.1395 210.801 81.2721 195.358 75.803C190.99 74.2554 186.669 72.5757 182.398 70.7808C183.807 71.3735 185.212 71.9695 186.621 72.5621C171.853 66.3276 157.714 58.62 144.483 49.5612C140.728 46.9909 137.05 44.3088 133.447 41.5285C134.639 42.4497 135.831 43.3708 137.023 44.2919C125.536 35.4058 114.865 25.4801 105.194 14.6468C102.444 11.5651 99.7752 8.4089 97.1879 5.18837C95.5861 3.46466 93.6897 2.24553 91.4987 1.53437C89.3923 0.426996 87.1234 -0.0809739 84.6885 0.0104607C82.2536 -0.0809739 79.9847 0.426996 77.8783 1.53437C75.6873 2.24553 73.7908 3.46466 72.189 5.18837C69.0972 8.5579 66.8012 12.9806 67.0111 17.6878C67.2211 19.2524 67.4311 20.8203 67.641 22.3848C68.4809 25.3785 69.9946 27.9793 72.1857 30.1839L72.189 30.1873Z" fill="#FF5733"/>
<path d="M98.7218 304.42C107.564 293.644 117.344 283.654 127.94 274.595C130.907 272.059 133.941 269.597 137.03 267.209C135.837 268.131 134.645 269.052 133.453 269.973C146.149 260.176 159.82 251.659 174.22 244.598C178.267 242.614 182.368 240.748 186.516 238.993C185.107 239.586 183.702 240.182 182.293 240.775C197.434 234.395 213.222 229.566 229.351 226.426C233.903 225.539 238.478 224.791 243.073 224.171C241.509 224.381 239.941 224.591 238.376 224.801C249.467 223.317 260.649 222.616 271.838 222.705C274.273 222.796 276.542 222.288 278.648 221.181C280.839 220.469 282.736 219.25 284.337 217.527C286.061 215.925 287.28 214.028 287.991 211.837C289.099 209.731 289.607 207.462 289.515 205.027C289.305 203.463 289.095 201.895 288.885 200.33C288.046 197.336 286.532 194.736 284.341 192.531C280.866 189.341 276.643 187.394 271.841 187.353C256.406 187.231 241.011 188.708 225.799 191.275C212.189 193.574 198.778 197.062 185.774 201.685C171.487 206.761 157.511 212.985 144.297 220.432C131.039 227.903 118.611 236.714 106.839 246.345C96.1075 255.127 86.1513 264.849 77.1263 275.374C75.9817 276.709 74.8506 278.06 73.7365 279.418C72.0128 281.019 70.7936 282.916 70.0825 285.107C68.9751 287.213 68.4671 289.482 68.5586 291.917C68.4671 294.352 68.9751 296.621 70.0825 298.727C70.7936 300.918 72.0128 302.815 73.7365 304.417C77.106 307.508 81.5287 309.804 86.2359 309.595C87.8005 309.385 89.3684 309.175 90.9329 308.965C93.9266 308.125 96.5274 306.611 98.732 304.42H98.7218Z" fill="#2ECC71"/>
</svg>
