<svg width="1000" height="319" viewBox="0 0 1000 319" fill="none" xmlns="http://www.w3.org/2000/svg">
<path d="M201.341 153.696C199.872 150.261 197.222 147.244 193.389 145.329L116.069 106.671C113.548 105.412 110.932 104.847 108.386 104.871C102.653 104.924 97.2821 107.961 94.2445 112.767C92.6333 115.32 91.6777 118.375 91.6777 121.744V199.064C91.6777 202.579 92.717 205.749 94.4572 208.372C97.6064 213.108 103.061 216.041 108.829 215.936C111.232 215.894 113.691 215.322 116.066 214.137L193.386 175.478C196.179 174.08 198.348 172.099 199.886 169.794C203.067 165.026 203.555 158.882 201.337 153.699L201.341 153.696Z" fill="white"/>
<path d="M3.18714 70.1609C3.76606 71.4547 4.33102 72.7555 4.88901 74.0598C4.27173 72.6126 3.65445 71.1653 3.03717 69.718C9.62148 85.1988 14.6085 101.342 17.8798 117.841C18.797 122.466 19.5782 127.118 20.2303 131.791C20.0071 130.18 19.7839 128.569 19.5607 126.954C21.9008 143.879 22.4902 161.03 21.2905 178.073C20.9453 182.945 20.4535 187.803 19.8258 192.647C20.035 191.033 20.2478 189.421 20.457 187.807C18.2704 204.431 14.3993 220.822 8.87169 236.652C7.29884 241.154 5.59348 245.608 3.76257 250.012C4.36939 248.562 4.97271 247.107 5.57953 245.656C4.57863 248.056 3.53937 250.441 2.46175 252.809C1.14 254.905 0.428562 257.162 0.327426 259.585C-0.206155 262.006 -0.0875851 264.426 0.683142 266.843C1.25508 269.211 2.35015 271.268 3.96484 273.019C5.25519 274.996 6.96405 276.552 9.0914 277.685C13.3252 279.9 18.4482 280.998 23.1249 279.464C24.5722 278.847 26.0195 278.229 27.4668 277.612C30.194 275.983 32.3632 273.797 33.9709 271.056C40.2134 257.305 45.5492 243.146 49.4343 228.547C53.3019 214.018 55.7361 199.137 57.1764 184.18C58.4737 170.708 58.6551 157.131 57.7204 143.628C56.6847 128.68 54.4771 113.716 51.0141 99.1311C47.8719 85.8928 43.6207 72.916 38.3128 60.3855C37.0782 57.47 35.8402 54.551 34.5498 51.6599C33.3989 49.543 31.8296 47.8481 29.8417 46.5717C28.0771 44.971 26.009 43.8934 23.6376 43.3389C21.2138 42.5891 18.797 42.4914 16.3767 43.0424C13.9564 43.161 11.7035 43.8899 9.618 45.2291C5.73995 47.7505 2.3362 51.496 1.29694 56.1413C1.08769 57.756 0.874956 59.3672 0.665709 60.9819C0.690121 64.2671 1.5306 67.3256 3.18714 70.1574V70.1609Z" fill="#FFD700"/>
<path d="M74.3417 31.0875C83.4613 42.4391 93.5854 52.9747 104.578 62.5199C116.536 72.902 129.388 82.3914 142.982 90.5311C156.576 98.6708 170.972 105.395 185.766 111.055C199.213 116.202 213.114 120.164 227.256 122.874C242.95 125.88 258.971 127.666 274.957 127.854C276.781 127.875 278.609 127.875 280.433 127.854C282.94 127.948 285.277 127.425 287.446 126.284C289.702 125.552 291.655 124.297 293.305 122.522C295.08 120.872 296.335 118.919 297.068 116.663C298.208 114.493 298.731 112.157 298.637 109.649C298.421 108.038 298.205 106.423 297.989 104.812C297.124 101.729 295.565 99.0509 293.308 96.7806C289.769 93.5303 285.354 91.3995 280.436 91.4483C268.736 91.5669 257.035 90.8415 245.44 89.2896C247.051 89.5058 248.666 89.722 250.277 89.9382C233.558 87.6784 217.087 83.6957 201.184 78.0635C196.685 76.4697 192.235 74.7399 187.837 72.8916C189.288 73.5019 190.735 74.1157 192.186 74.726C176.977 68.3056 162.417 60.3681 148.792 51.0392C144.924 48.3922 141.137 45.6301 137.426 42.7669C138.654 43.7155 139.881 44.6641 141.109 45.6127C129.28 36.4616 118.291 26.2399 108.33 15.0835C105.499 11.91 102.75 8.65966 100.086 5.34309C98.4365 3.56797 96.4835 2.31249 94.2271 1.58013C92.0579 0.439729 89.7213 -0.0833885 87.2138 0.0107727C84.7064 -0.0833885 82.3698 0.439729 80.2006 1.58013C77.9442 2.31249 75.9912 3.56797 74.3417 5.34309C71.1576 8.8131 68.7931 13.3677 69.0093 18.2153C69.2255 19.8265 69.4418 21.4412 69.658 23.0524C70.5229 26.1353 72.0818 28.8136 74.3382 31.084L74.3417 31.0875Z" fill="#FF5733"/>
<path d="M101.666 313.498C110.772 302.401 120.843 292.113 131.756 282.784C134.811 280.172 137.935 277.636 141.116 275.178C139.888 276.126 138.661 277.075 137.433 278.023C150.508 267.934 164.587 259.163 179.415 251.892C183.583 249.848 187.806 247.927 192.078 246.12C190.627 246.731 189.18 247.344 187.729 247.955C203.322 241.384 219.58 236.411 236.191 233.178C240.878 232.265 245.59 231.494 250.322 230.856C248.711 231.072 247.096 231.288 245.485 231.504C256.906 229.977 268.422 229.255 279.945 229.346C282.452 229.44 284.789 228.917 286.958 227.776C289.214 227.044 291.167 225.788 292.817 224.013C294.592 222.364 295.847 220.411 296.58 218.154C297.72 215.985 298.243 213.649 298.149 211.141C297.933 209.53 297.717 207.915 297.5 206.304C296.635 203.221 295.077 200.543 292.82 198.272C289.242 194.987 284.893 192.982 279.948 192.94C264.052 192.815 248.198 194.335 232.533 196.979C218.517 199.347 204.706 202.939 191.314 207.699C176.601 212.927 162.208 219.337 148.6 227.006C134.947 234.699 122.148 243.773 110.025 253.692C98.9736 262.734 88.7205 272.747 79.4265 283.586C78.2477 284.96 77.0829 286.352 75.9355 287.75C74.1604 289.4 72.9049 291.353 72.1725 293.609C71.0321 295.778 70.509 298.115 70.6032 300.622C70.509 303.13 71.0321 305.466 72.1725 307.635C72.9049 309.892 74.1604 311.845 75.9355 313.494C79.4055 316.678 83.9601 319.043 88.8077 318.827C90.4189 318.61 92.0336 318.394 93.6448 318.178C96.7277 317.313 99.4061 315.754 101.676 313.498H101.666Z" fill="#2ECC71"/>
<path d="M523.586 166.672C523.586 209.572 493.978 240.387 453.495 240.387C432.951 240.387 417.243 233.74 406.669 222.259H406.066V294.767H374.041V95.6749H400.929L401.836 115.916H402.439C412.709 101.415 430.234 92.6548 453.495 92.6548C493.978 92.6548 523.586 123.773 523.586 166.672ZM491.261 166.672C491.261 139.784 473.436 121.356 448.362 121.356C423.287 121.356 405.159 139.784 405.159 166.672C405.159 193.561 422.983 211.689 448.362 211.689C473.74 211.689 491.261 192.957 491.261 166.672Z" fill="white"/>
<path d="M694.879 166.672C694.879 209.875 663.461 240.387 619.351 240.387C575.242 240.387 544.124 209.872 544.124 166.672C544.124 123.473 575.242 92.6548 619.351 92.6548C663.461 92.6548 694.879 123.167 694.879 166.672ZM576.452 166.672C576.452 192.957 593.973 211.688 619.351 211.688C644.73 211.688 662.554 192.957 662.554 166.672C662.554 140.388 645.033 121.356 619.351 121.356C593.67 121.356 576.452 139.784 576.452 166.672Z" fill="white"/>
<path d="M723.877 25.8875H755.903V237.367H723.877V25.8875Z" fill="white"/>
<path d="M829.917 51.5656C829.917 63.6496 821.76 71.8068 809.372 71.8068C796.985 71.8068 789.131 63.6496 789.131 51.5656C789.131 39.4816 797.288 31.021 809.372 31.021C821.456 31.021 829.917 39.4816 829.917 51.5656ZM825.387 95.6749V237.367H793.362V95.6749H825.387Z" fill="white"/>
<path d="M887.313 176.34C891.24 198.998 910.575 212.292 938.673 212.292C959.518 212.292 977.042 205.948 989.729 193.864H991.239V225.586C979.155 234.95 959.821 240.39 937.463 240.39C887.917 240.39 854.685 210.782 854.685 166.676C854.685 122.57 885.2 92.6582 928.399 92.6582C971.598 92.6582 1000 119.243 1000 160.632V176.343H887.313V176.34ZM875.533 75.1303L913.298 24.074H944.417L982.183 75.1303H951.367L928.709 47.3353L906.351 75.1303H875.536H875.533ZM887.313 152.471H970.395C967.675 133.137 951.36 120.75 929.306 120.75C909.065 120.75 891.24 133.437 887.313 152.471Z" fill="white"/>
</svg>
